<svg width="40" height="40" viewBox="0 0 40 40" fill="none" xmlns="http://www.w3.org/2000/svg">
<path d="M20 31.6667C20.3297 31.6667 20.6519 31.5689 20.926 31.3858C21.2001 31.2027 21.4137 30.9424 21.5398 30.6378C21.666 30.3333 21.699 29.9982 21.6347 29.6749C21.5704 29.3516 21.4116 29.0546 21.1786 28.8215C20.9455 28.5884 20.6485 28.4297 20.3252 28.3654C20.0019 28.3011 19.6668 28.3341 19.3622 28.4602C19.0577 28.5864 18.7974 28.8 18.6143 29.0741C18.4311 29.3481 18.3334 29.6704 18.3334 30C18.3334 30.442 18.509 30.866 18.8215 31.1785C19.1341 31.4911 19.558 31.6667 20 31.6667ZM28.3334 31.6667C28.663 31.6667 28.9852 31.5689 29.2593 31.3858C29.5334 31.2027 29.747 30.9424 29.8732 30.6378C29.9993 30.3333 30.0323 29.9982 29.968 29.6749C29.9037 29.3516 29.745 29.0546 29.5119 28.8215C29.2788 28.5884 28.9818 28.4297 28.6585 28.3654C28.3352 28.3011 28.0001 28.3341 27.6956 28.4602C27.391 28.5864 27.1307 28.8 26.9476 29.0741C26.7645 29.3481 26.6667 29.6704 26.6667 30C26.6667 30.442 26.8423 30.866 27.1549 31.1785C27.4674 31.4911 27.8913 31.6667 28.3334 31.6667ZM28.3334 25C28.663 25 28.9852 24.9023 29.2593 24.7191C29.5334 24.536 29.747 24.2757 29.8732 23.9712C29.9993 23.6666 30.0323 23.3315 29.968 23.0082C29.9037 22.6849 29.745 22.3879 29.5119 22.1548C29.2788 21.9218 28.9818 21.763 28.6585 21.6987C28.3352 21.6344 28.0001 21.6674 27.6956 21.7936C27.391 21.9197 27.1307 22.1333 26.9476 22.4074C26.7645 22.6815 26.6667 23.0037 26.6667 23.3334C26.6667 23.7754 26.8423 24.1993 27.1549 24.5119C27.4674 24.8244 27.8913 25 28.3334 25ZM20 25C20.3297 25 20.6519 24.9023 20.926 24.7191C21.2001 24.536 21.4137 24.2757 21.5398 23.9712C21.666 23.6666 21.699 23.3315 21.6347 23.0082C21.5704 22.6849 21.4116 22.3879 21.1786 22.1548C20.9455 21.9218 20.6485 21.763 20.3252 21.6987C20.0019 21.6344 19.6668 21.6674 19.3622 21.7936C19.0577 21.9197 18.7974 22.1333 18.6143 22.4074C18.4311 22.6815 18.3334 23.0037 18.3334 23.3334C18.3334 23.7754 18.509 24.1993 18.8215 24.5119C19.1341 24.8244 19.558 25 20 25ZM31.6667 5.00002H30V3.33335C30 2.89133 29.8244 2.4674 29.5119 2.15484C29.1993 1.84228 28.7754 1.66669 28.3334 1.66669C27.8913 1.66669 27.4674 1.84228 27.1549 2.15484C26.8423 2.4674 26.6667 2.89133 26.6667 3.33335V5.00002H13.3334V3.33335C13.3334 2.89133 13.1578 2.4674 12.8452 2.15484C12.5327 1.84228 12.1087 1.66669 11.6667 1.66669C11.2247 1.66669 10.8008 1.84228 10.4882 2.15484C10.1756 2.4674 10 2.89133 10 3.33335V5.00002H8.33337C7.00729 5.00002 5.73552 5.5268 4.79784 6.46449C3.86016 7.40217 3.33337 8.67394 3.33337 10V33.3334C3.33337 34.6594 3.86016 35.9312 4.79784 36.8689C5.73552 37.8066 7.00729 38.3334 8.33337 38.3334H31.6667C32.9928 38.3334 34.2646 37.8066 35.2022 36.8689C36.1399 35.9312 36.6667 34.6594 36.6667 33.3334V10C36.6667 8.67394 36.1399 7.40217 35.2022 6.46449C34.2646 5.5268 32.9928 5.00002 31.6667 5.00002ZM33.3334 33.3334C33.3334 33.7754 33.1578 34.1993 32.8452 34.5119C32.5327 34.8244 32.1087 35 31.6667 35H8.33337C7.89135 35 7.46742 34.8244 7.15486 34.5119C6.8423 34.1993 6.66671 33.7754 6.66671 33.3334V18.3334H33.3334V33.3334ZM33.3334 15H6.66671V10C6.66671 9.55799 6.8423 9.13407 7.15486 8.82151C7.46742 8.50895 7.89135 8.33335 8.33337 8.33335H10V10C10 10.442 10.1756 10.866 10.4882 11.1785C10.8008 11.4911 11.2247 11.6667 11.6667 11.6667C12.1087 11.6667 12.5327 11.4911 12.8452 11.1785C13.1578 10.866 13.3334 10.442 13.3334 10V8.33335H26.6667V10C26.6667 10.442 26.8423 10.866 27.1549 11.1785C27.4674 11.4911 27.8913 11.6667 28.3334 11.6667C28.7754 11.6667 29.1993 11.4911 29.5119 11.1785C29.8244 10.866 30 10.442 30 10V8.33335H31.6667C32.1087 8.33335 32.5327 8.50895 32.8452 8.82151C33.1578 9.13407 33.3334 9.55799 33.3334 10V15ZM11.6667 25C11.9963 25 12.3186 24.9023 12.5927 24.7191C12.8667 24.536 13.0804 24.2757 13.2065 23.9712C13.3327 23.6666 13.3657 23.3315 13.3013 23.0082C13.237 22.6849 13.0783 22.3879 12.8452 22.1548C12.6121 21.9218 12.3152 21.763 11.9919 21.6987C11.6686 21.6344 11.3334 21.6674 11.0289 21.7936C10.7244 21.9197 10.4641 22.1333 10.2809 22.4074C10.0978 22.6815 10 23.0037 10 23.3334C10 23.7754 10.1756 24.1993 10.4882 24.5119C10.8008 24.8244 11.2247 25 11.6667 25ZM11.6667 31.6667C11.9963 31.6667 12.3186 31.5689 12.5927 31.3858C12.8667 31.2027 13.0804 30.9424 13.2065 30.6378C13.3327 30.3333 13.3657 29.9982 13.3013 29.6749C13.237 29.3516 13.0783 29.0546 12.8452 28.8215C12.6121 28.5884 12.3152 28.4297 11.9919 28.3654C11.6686 28.3011 11.3334 28.3341 11.0289 28.4602C10.7244 28.5864 10.4641 28.8 10.2809 29.0741C10.0978 29.3481 10 29.6704 10 30C10 30.442 10.1756 30.866 10.4882 31.1785C10.8008 31.4911 11.2247 31.6667 11.6667 31.6667Z" fill="black"/>
</svg>
