<svg width="40" height="40" viewBox="0 0 40 40" fill="none" xmlns="http://www.w3.org/2000/svg">
<path d="M31.6667 6.66669H8.33334C7.00726 6.66669 5.73549 7.19347 4.79781 8.13115C3.86013 9.06884 3.33334 10.3406 3.33334 11.6667V28.3334C3.33334 29.6594 3.86013 30.9312 4.79781 31.8689C5.73549 32.8066 7.00726 33.3334 8.33334 33.3334H31.6667C32.9928 33.3334 34.2645 32.8066 35.2022 31.8689C36.1399 30.9312 36.6667 29.6594 36.6667 28.3334V11.6667C36.6667 10.3406 36.1399 9.06884 35.2022 8.13115C34.2645 7.19347 32.9928 6.66669 31.6667 6.66669ZM8.33334 30C7.89132 30 7.46739 29.8244 7.15483 29.5119C6.84227 29.1993 6.66668 28.7754 6.66668 28.3334V24.3L12.1667 18.8167C12.4782 18.5113 12.8971 18.3403 13.3333 18.3403C13.7696 18.3403 14.1885 18.5113 14.5 18.8167L25.6833 30H8.33334ZM33.3333 28.3334C33.3333 28.7754 33.1578 29.1993 32.8452 29.5119C32.5326 29.8244 32.1087 30 31.6667 30H30.3833L24.0333 23.6167L25.5 22.15C25.8116 21.8446 26.2304 21.6736 26.6667 21.6736C27.1029 21.6736 27.5218 21.8446 27.8333 22.15L33.3333 27.6334V28.3334ZM33.3333 22.9334L30.2 19.8167C29.2501 18.9041 27.9839 18.3944 26.6667 18.3944C25.3494 18.3944 24.0832 18.9041 23.1333 19.8167L21.6667 21.2834L16.8667 16.4834C15.9168 15.5707 14.6506 15.0611 13.3333 15.0611C12.0161 15.0611 10.7499 15.5707 9.80001 16.4834L6.66668 19.6V11.6667C6.66668 11.2247 6.84227 10.8007 7.15483 10.4882C7.46739 10.1756 7.89132 10 8.33334 10H31.6667C32.1087 10 32.5326 10.1756 32.8452 10.4882C33.1578 10.8007 33.3333 11.2247 33.3333 11.6667V22.9334Z" fill="black"/>
</svg>
