<svg width="40" height="40" viewBox="0 0 40 40" fill="none" xmlns="http://www.w3.org/2000/svg">
<path d="M20.5 20.3667C21.3893 19.5969 22.1026 18.6448 22.5915 17.575C23.0804 16.5053 23.3334 15.3429 23.3334 14.1667C23.3334 11.9565 22.4554 9.83692 20.8926 8.27412C19.3298 6.71132 17.2102 5.83334 15 5.83334C12.7899 5.83334 10.6703 6.71132 9.10746 8.27412C7.54466 9.83692 6.66669 11.9565 6.66669 14.1667C6.66667 15.3429 6.91969 16.5053 7.40856 17.575C7.89744 18.6448 8.61072 19.5969 9.50002 20.3667C7.16692 21.4232 5.18746 23.1292 3.79832 25.2809C2.40918 27.4326 1.66914 29.9389 1.66669 32.5C1.66669 32.942 1.84228 33.366 2.15484 33.6785C2.4674 33.9911 2.89133 34.1667 3.33335 34.1667C3.77538 34.1667 4.1993 33.9911 4.51186 33.6785C4.82443 33.366 5.00002 32.942 5.00002 32.5C5.00002 29.8478 6.05359 27.3043 7.92895 25.4289C9.80432 23.5536 12.3479 22.5 15 22.5C17.6522 22.5 20.1957 23.5536 22.0711 25.4289C23.9465 27.3043 25 29.8478 25 32.5C25 32.942 25.1756 33.366 25.4882 33.6785C25.8007 33.9911 26.2247 34.1667 26.6667 34.1667C27.1087 34.1667 27.5326 33.9911 27.8452 33.6785C28.1578 33.366 28.3334 32.942 28.3334 32.5C28.3309 29.9389 27.5909 27.4326 26.2017 25.2809C24.8126 23.1292 22.8331 21.4232 20.5 20.3667ZM15 19.1667C14.0111 19.1667 13.0444 18.8734 12.2222 18.324C11.3999 17.7746 10.7591 16.9937 10.3806 16.0801C10.0022 15.1665 9.90317 14.1611 10.0961 13.1912C10.289 12.2213 10.7652 11.3304 11.4645 10.6311C12.1637 9.93188 13.0547 9.45568 14.0246 9.26275C14.9945 9.06982 15.9998 9.16884 16.9134 9.54728C17.8271 9.92572 18.608 10.5666 19.1574 11.3888C19.7068 12.2111 20 13.1778 20 14.1667C20 15.4928 19.4732 16.7645 18.5356 17.7022C17.5979 18.6399 16.3261 19.1667 15 19.1667ZM31.2334 19.7C32.3 18.4989 32.9967 17.0151 33.2397 15.4272C33.4827 13.8394 33.2616 12.2151 32.603 10.75C31.9444 9.28489 30.8763 8.04134 29.5275 7.16905C28.1786 6.29676 26.6064 5.83291 25 5.83334C24.558 5.83334 24.1341 6.00894 23.8215 6.3215C23.5089 6.63406 23.3334 7.05798 23.3334 7.50001C23.3334 7.94204 23.5089 8.36596 23.8215 8.67852C24.1341 8.99108 24.558 9.16668 25 9.16668C26.3261 9.16668 27.5979 9.69346 28.5356 10.6311C29.4732 11.5688 30 12.8406 30 14.1667C29.9977 15.0421 29.7655 15.9015 29.3268 16.659C28.8881 17.4166 28.2581 18.0456 27.5 18.4833C27.2529 18.6259 27.0465 18.8295 26.9006 19.0746C26.7547 19.3197 26.6742 19.5982 26.6667 19.8833C26.6597 20.1663 26.7249 20.4463 26.8561 20.6971C26.9873 20.9479 27.1803 21.1611 27.4167 21.3167L28.0667 21.75L28.2834 21.8667C30.2923 22.8195 31.9872 24.3267 33.1683 26.2105C34.3494 28.0944 34.9676 30.2766 34.95 32.5C34.95 32.942 35.1256 33.366 35.4382 33.6785C35.7507 33.9911 36.1747 34.1667 36.6167 34.1667C37.0587 34.1667 37.4826 33.9911 37.7952 33.6785C38.1078 33.366 38.2834 32.942 38.2834 32.5C38.297 29.9424 37.6564 27.4238 36.4225 25.1834C35.1885 22.9431 33.4023 21.0555 31.2334 19.7Z" fill="black"/>
<path d="M38.9071 1.09588C38.3182 0.527764 37.5645 0.160963 36.7544 0.0481308C35.9442 -0.0647018 35.1191 0.0822361 34.3976 0.467852C33.6025 0.0302755 32.6765 -0.106261 31.7891 0.0832144C30.9016 0.27269 30.112 0.775513 29.5646 1.49972C29.0173 2.22393 28.7487 3.12111 28.8081 4.02718C28.8675 4.93325 29.2508 5.78765 29.8881 6.43411L33.6189 10.0627C33.8416 10.2752 34.1363 10.3957 34.444 10.4C34.597 10.4009 34.7486 10.3715 34.8902 10.3137C35.0318 10.2558 35.1606 10.1705 35.2692 10.0627L38.9535 6.37596C39.6332 5.66248 40.0085 4.71217 39.9998 3.72649C39.9912 2.74081 39.5992 1.79726 38.9071 1.09588ZM37.2683 4.72448L34.3976 7.59712L31.5384 4.72448C31.2672 4.44841 31.1166 4.07583 31.1199 3.68869C31.1232 3.30155 31.28 2.93157 31.5559 2.66013C31.8318 2.38869 32.2041 2.23804 32.591 2.24131C32.9779 2.24458 33.3476 2.40151 33.6189 2.67758C33.7269 2.78658 33.8554 2.8731 33.9971 2.93215C34.1387 2.99119 34.2906 3.02159 34.444 3.02159C34.5975 3.02159 34.7494 2.99119 34.891 2.93215C35.0326 2.8731 35.1612 2.78658 35.2692 2.67758C35.5455 2.41583 35.9115 2.26996 36.292 2.26996C36.6725 2.26996 37.0385 2.41583 37.3148 2.67758C37.5756 2.95732 37.7167 3.32802 37.708 3.7105C37.6993 4.09297 37.5415 4.45688 37.2683 4.72448Z" fill="black"/>
</svg>
