<svg width="40" height="40" viewBox="0 0 40 40" fill="none" xmlns="http://www.w3.org/2000/svg">
<path d="M33.3333 13.3333L23.3333 4.56665C22.4166 3.74672 21.2299 3.29343 20 3.29343C18.7701 3.29343 17.5833 3.74672 16.6666 4.56665L6.66664 13.3333C6.13726 13.8068 5.71481 14.3876 5.42743 15.0371C5.14005 15.6865 4.99433 16.3898 4.99997 17.1V31.6666C4.99997 32.9927 5.52676 34.2645 6.46444 35.2022C7.40212 36.1399 8.67389 36.6666 9.99998 36.6666H30C31.3261 36.6666 32.5978 36.1399 33.5355 35.2022C34.4732 34.2645 35 32.9927 35 31.6666V17.0833C35.0033 16.3759 34.8564 15.6759 34.5691 15.0294C34.2818 14.383 33.8606 13.8049 33.3333 13.3333ZM23.3333 33.3333H16.6666V25C16.6666 24.558 16.8422 24.134 17.1548 23.8215C17.4674 23.5089 17.8913 23.3333 18.3333 23.3333H21.6666C22.1087 23.3333 22.5326 23.5089 22.8452 23.8215C23.1577 24.134 23.3333 24.558 23.3333 25V33.3333ZM31.6666 31.6666C31.6666 32.1087 31.491 32.5326 31.1785 32.8452C30.8659 33.1577 30.442 33.3333 30 33.3333H26.6666V25C26.6666 23.6739 26.1399 22.4021 25.2022 21.4644C24.2645 20.5268 22.9927 20 21.6666 20H18.3333C17.0072 20 15.7355 20.5268 14.7978 21.4644C13.8601 22.4021 13.3333 23.6739 13.3333 25V33.3333H9.99998C9.55795 33.3333 9.13403 33.1577 8.82146 32.8452C8.5089 32.5326 8.33331 32.1087 8.33331 31.6666V17.0833C8.33361 16.8467 8.3843 16.6128 8.482 16.3973C8.57971 16.1817 8.72219 15.9895 8.89998 15.8333L18.9 7.08331C19.2041 6.81611 19.5951 6.66876 20 6.66876C20.4048 6.66876 20.7958 6.81611 21.1 7.08331L31.1 15.8333C31.2778 15.9895 31.4202 16.1817 31.5179 16.3973C31.6157 16.6128 31.6663 16.8467 31.6666 17.0833V31.6666Z" fill="black"/>
</svg>
