<svg width="40" height="40" viewBox="0 0 40 40" fill="none" xmlns="http://www.w3.org/2000/svg">
<path d="M30 3.33334H10C8.67392 3.33334 7.40215 3.86013 6.46447 4.79781C5.52678 5.73549 5 7.00726 5 8.33334V26.6667C5 27.9928 5.52678 29.2645 6.46447 30.2022C7.40215 31.1399 8.67392 31.6667 10 31.6667H14.3167L18.8167 36.1833C18.9724 36.3378 19.1571 36.46 19.3602 36.543C19.5632 36.6259 19.7807 36.6679 20 36.6667C20.3972 36.6667 20.7814 36.5248 21.0833 36.2667L26.45 31.6667H30C31.3261 31.6667 32.5979 31.1399 33.5355 30.2022C34.4732 29.2645 35 27.9928 35 26.6667V8.33334C35 7.00726 34.4732 5.73549 33.5355 4.79781C32.5979 3.86013 31.3261 3.33334 30 3.33334ZM31.6667 26.6667C31.6667 27.1087 31.4911 27.5326 31.1785 27.8452C30.8659 28.1577 30.442 28.3333 30 28.3333H25.8333C25.4361 28.3333 25.0519 28.4752 24.75 28.7333L20.0833 32.7333L16.1833 28.8167C16.0276 28.6622 15.8429 28.54 15.6398 28.4571C15.4368 28.3741 15.2193 28.3321 15 28.3333H10C9.55797 28.3333 9.13405 28.1577 8.82149 27.8452C8.50893 27.5326 8.33333 27.1087 8.33333 26.6667V8.33334C8.33333 7.89132 8.50893 7.46739 8.82149 7.15483C9.13405 6.84227 9.55797 6.66668 10 6.66668H30C30.442 6.66668 30.8659 6.84227 31.1785 7.15483C31.4911 7.46739 31.6667 7.89132 31.6667 8.33334V26.6667Z" fill="black"/>
</svg>
