<svg width="40" height="40" viewBox="0 0 40 40" fill="none" xmlns="http://www.w3.org/2000/svg">
<circle cx="20" cy="20" r="20" fill="#FCB2A9"/>
<path d="M28.5 20.9999C28.2348 20.9999 27.9804 21.1053 27.7929 21.2928C27.6054 21.4803 27.5 21.7347 27.5 21.9999V25.9999C27.5 26.2651 27.3946 26.5195 27.2071 26.707C27.0196 26.8945 26.7652 26.9999 26.5 26.9999H12.5C12.2348 26.9999 11.9804 26.8945 11.7929 26.707C11.6054 26.5195 11.5 26.2651 11.5 25.9999V16.4099L17.38 22.2999C17.9412 22.8566 18.6995 23.1692 19.49 23.1699C19.8903 23.1709 20.2867 23.0918 20.656 22.9372C21.0252 22.7827 21.3598 22.5558 21.64 22.2699L22.53 21.3899C22.6669 21.1968 22.7309 20.9613 22.7106 20.7255C22.6902 20.4896 22.5869 20.2686 22.4188 20.1018C22.2508 19.935 22.0291 19.8332 21.7931 19.8146C21.5571 19.7959 21.3221 19.8616 21.13 19.9999L20.2 20.9099C20.0131 21.0931 19.7618 21.1958 19.5 21.1958C19.2382 21.1958 18.9869 21.0931 18.8 20.9099L12.91 14.9999H17.5C17.7652 14.9999 18.0196 14.8945 18.2071 14.707C18.3946 14.5195 18.5 14.2651 18.5 13.9999C18.5 13.7347 18.3946 13.4803 18.2071 13.2928C18.0196 13.1053 17.7652 12.9999 17.5 12.9999H12.5C11.7044 12.9999 10.9413 13.316 10.3787 13.8786C9.81607 14.4412 9.5 15.2042 9.5 15.9999V25.9999C9.5 26.7955 9.81607 27.5586 10.3787 28.1212C10.9413 28.6838 11.7044 28.9999 12.5 28.9999H26.5C27.2956 28.9999 28.0587 28.6838 28.6213 28.1212C29.1839 27.5586 29.5 26.7955 29.5 25.9999V21.9999C29.5 21.7347 29.3946 21.4803 29.2071 21.2928C29.0196 21.1053 28.7652 20.9999 28.5 20.9999ZM29.55 11.9999C29.0433 11.5114 28.3949 11.196 27.6978 11.099C27.0007 11.002 26.2908 11.1283 25.67 11.4599C24.9859 11.0836 24.1892 10.9663 23.4256 11.1292C22.6621 11.2921 21.9827 11.7244 21.5117 12.3471C21.0408 12.9698 20.8097 13.7413 20.8608 14.5203C20.9119 15.2994 21.2417 16.034 21.79 16.5899L25 19.7099C25.1916 19.8926 25.4452 19.9962 25.71 19.9999C25.8416 20.0007 25.9721 19.9754 26.0939 19.9257C26.2157 19.8759 26.3266 19.8026 26.42 19.7099L29.59 16.5399C30.1748 15.9264 30.4977 15.1093 30.4902 14.2618C30.4828 13.4143 30.1455 12.603 29.55 11.9999ZM28.14 15.1199L25.67 17.5899L23.21 15.1199C22.9766 14.8825 22.8471 14.5622 22.8499 14.2293C22.8527 13.8964 22.9876 13.5783 23.225 13.3449C23.4624 13.1115 23.7827 12.982 24.1156 12.9848C24.4485 12.9876 24.7666 13.1225 25 13.3599C25.093 13.4536 25.2036 13.528 25.3254 13.5788C25.4473 13.6296 25.578 13.6557 25.71 13.6557C25.842 13.6557 25.9727 13.6296 26.0946 13.5788C26.2164 13.528 26.327 13.4536 26.42 13.3599C26.6577 13.1348 26.9726 13.0094 27.3 13.0094C27.6274 13.0094 27.9423 13.1348 28.18 13.3599C28.4044 13.6004 28.5258 13.9192 28.5184 14.248C28.5109 14.5769 28.3751 14.8898 28.14 15.1199Z" fill="white"/>
</svg>
