<svg width="396" height="100" viewBox="0 0 396 100" fill="none" xmlns="http://www.w3.org/2000/svg">
<g clip-path="url(#clip0)">
<path d="M116.466 45.0799C107.241 46.6075 98.6574 48.0639 90.3587 49.3073C89.7879 49.2936 89.2264 49.1599 88.7109 48.9151C88.1954 48.6702 87.7374 48.3197 87.367 47.8863C84.0686 44.3643 81.0555 40.5869 78.356 36.5897C73.0986 27.4412 66.0201 19.4623 57.5561 13.1439C54.09 10.7772 50.2993 8.92267 46.3013 7.63765C44.2667 6.93237 42.0659 6.85689 39.9876 7.42109C37.9092 7.98529 36.0503 9.16283 34.6547 10.7993C33.2375 12.4058 32.3102 14.383 31.9821 16.4977C31.6539 18.6124 31.9387 20.7766 32.8027 22.7353C34.9134 28.0764 38.7482 32.5638 43.7013 35.4885C48.6928 38.8391 53.9315 41.8079 59.3725 44.3694C64.6793 46.8916 70.3423 48.6678 76.6821 51.119C73.5478 51.4032 71.1259 51.7229 68.6684 51.794C56.5975 51.7141 44.5518 52.9048 32.7315 55.3464C22.0466 58.1172 11.7178 61.9893 4.23838 70.6927C-0.391751 76.0213 -1.03285 81.3499 2.13701 86.2167C3.75956 88.6758 6.15116 90.5314 8.94005 91.495C11.7289 92.4586 14.7589 92.4763 17.5589 91.5453C24.011 89.4771 29.8318 85.8103 34.4767 80.8881C39.8904 75.7726 45.1616 70.5506 50.6821 65.5062C55.2758 61.3969 60.7997 58.4592 66.7807 56.9449C62.5366 60.9339 58.5961 65.2323 54.9917 69.8046C52.6849 72.971 51.098 76.6009 50.3414 80.4415C49.5848 84.2821 49.6768 88.2411 50.6109 92.0426C50.9194 93.4316 51.5149 94.7412 52.3594 95.8877C53.204 97.0341 54.279 97.9923 55.5157 98.7011C56.7525 99.4098 58.1239 99.8534 59.5423 100.004C60.9607 100.154 62.3949 100.008 63.7533 99.5737C67.122 98.9696 70.1601 97.1761 72.3118 94.5212C74.4635 91.8662 75.585 88.5274 75.4711 85.1154C75.8273 75.2753 76.0766 65.4352 81.8464 56.6963C82.6289 55.5178 83.8011 54.6503 85.1588 54.2451C93.1724 52.7886 101.222 51.5808 110.09 50.1243C107.348 52.0781 105.246 53.4636 103.252 54.9911C94.567 60.9841 88.573 70.1239 86.5478 80.4618C86.0272 82.4562 86.0744 84.556 86.6841 86.5251C87.2939 88.4943 88.442 90.2549 89.9996 91.6091C91.5571 92.9634 93.4624 93.8577 95.5014 94.1915C97.5404 94.5254 99.6324 94.2856 101.542 93.4991C104.563 92.5412 107.289 90.8319 109.463 88.5323C111.638 86.2327 113.19 83.4186 113.972 80.3552C115.824 74.2806 117.107 67.9929 118.923 61.9183C120.072 57.9391 121.5 54.0455 123.197 50.2664C123.53 49.6297 124 49.0737 124.572 48.6379C125.144 48.202 125.806 47.8969 126.509 47.7442C138.761 46.6075 151.013 45.7194 163.372 45.5062C159.276 47.7087 155.145 49.8046 151.156 52.1492C144.959 55.7016 139.082 60.0355 136.909 67.2469C135.893 70.9701 135.603 74.8533 136.055 78.6856C136.518 83.8366 141.255 86.3233 146.739 84.8313C154.018 82.42 160.055 77.2531 163.55 70.444C167.397 63.9432 170.959 57.3712 174.52 50.9769C176.479 47.4245 178.616 44.6536 183.282 45.968C183.745 45.968 184.35 45.7549 185.098 45.5773C184.35 42.2735 181.537 42.7353 179.756 42.7353C178.455 42.7947 177.168 42.4554 176.066 41.7632C174.965 41.0709 174.102 40.059 173.594 38.8632C170.033 32.2558 166.471 25.5417 162.66 19.0764C160.553 15.4082 157.992 12.0187 155.038 8.98756C152.673 6.86681 149.824 5.35462 146.739 4.58259C144.787 3.8876 142.677 3.76215 140.656 4.22096C138.636 4.67978 136.788 5.70383 135.33 7.173C133.872 8.64218 132.864 10.4956 132.424 12.5158C131.985 14.536 132.132 16.6393 132.849 18.579C134.072 22.6675 136.118 26.4645 138.861 29.7382C141.605 33.0119 144.988 35.6937 148.805 37.6199C151.12 38.9698 153.649 40.0355 156.712 41.563L145.137 42.3801C139.83 42.7353 134.452 43.1261 129.216 43.3037C128.004 43.2684 126.839 42.8309 125.904 42.0604C120.966 37.6227 117.209 32.0324 114.97 25.7904C112.781 20.0909 110.062 14.6081 106.849 9.41385C104.894 5.98492 101.888 3.27187 98.2719 1.67333C94.6562 0.074791 90.6218 -0.324944 86.7615 0.53286C85.7015 0.710915 84.6886 1.10076 83.7835 1.679C82.8783 2.25724 82.0997 3.01194 81.4943 3.8978C80.8889 4.78365 80.4692 5.7824 80.2604 6.83407C80.0516 7.88573 80.0581 8.96864 80.2793 10.0178C81.3501 16.462 84.4134 22.4114 89.0409 27.0337C95.7927 33.8982 103.827 39.3773 112.69 43.1616L116.466 45.0799ZM47.7616 59.7513L48.189 60.675C41.8136 66.7851 35.6164 73.1439 28.9561 78.9698C25.4575 81.9355 21.5764 84.4206 17.4164 86.3588C15.5194 87.3991 13.3024 87.6989 11.1961 87.1999C9.08982 86.701 7.2447 85.4389 6.01919 83.659C3.73975 80.4973 4.16714 76.7673 7.87124 72.8242C17.7726 62.167 30.8794 59.0408 45.6246 57.1581C40.7095 59.8579 36.6136 61.8828 32.7315 64.2629C25.6082 68.7389 24.1123 70.2309 23.4356 73.1794L47.7616 59.7513ZM77.1095 44.2273L75.756 45.7194C72.1944 44.4405 68.6328 43.1972 65.0711 41.8117C56.0815 38.7413 47.9009 33.6902 41.1369 27.0337C39.186 24.9769 37.6503 22.5648 36.6136 19.9289C36.1796 18.9474 36.0108 17.8696 36.1239 16.8027C36.237 15.7359 36.6282 14.7172 37.2584 13.8478C37.8887 12.9785 38.7361 12.2889 39.7165 11.8476C40.6968 11.4062 41.776 11.2285 42.8465 11.3322C46.769 11.814 50.5379 13.1479 53.8876 15.2398C61.6515 20.503 68.1078 27.465 72.7643 35.595C73.2273 36.341 73.5122 37.1581 74.1889 38.5435C67.956 34.0675 64.0026 27.8863 57.5917 24.9378L56.9862 25.9325L77.1095 44.2273ZM117.534 50.0888C115.896 55.8792 114.364 61.1723 112.904 66.4654C111.729 70.6572 110.767 74.9201 109.342 79.0764C108.861 81.0285 107.979 82.86 106.753 84.4557C105.527 86.0514 103.984 87.3767 102.219 88.3481C100.944 89.3261 99.4056 89.9026 97.8005 90.0038C96.1953 90.1051 94.5964 89.7265 93.2081 88.9165C91.9934 87.8742 91.0768 86.5299 90.5513 85.02C90.0259 83.5102 89.9103 81.8885 90.2163 80.3197C90.3277 79.6209 90.4944 78.9319 90.7149 78.2593C94.8108 64.2629 105.353 56.6252 117.534 50.0888ZM169.605 40.8526L169.071 41.7052C161.948 38.4369 154.824 35.595 148.128 31.7584C145.333 30.1715 142.899 28.0227 140.98 25.4483C139.061 22.8738 137.699 19.9298 136.981 16.8028C136.599 15.7913 136.486 14.6988 136.651 13.6307C136.816 12.5627 137.255 11.5552 137.924 10.7054C138.594 9.85561 139.471 9.19228 140.473 8.77937C141.474 8.36647 142.565 8.21795 143.641 8.34814C146.084 8.29613 148.498 8.88983 150.638 10.069C152.777 11.2482 154.565 12.9708 155.822 15.0622C159.383 20.7815 162.553 26.8561 165.865 32.8242L164.868 33.6057C159.704 28.206 154.575 22.7709 149.446 17.3712L148.698 18.0107C152.046 28.5968 162.161 33.5702 169.57 40.8526H169.605ZM110.126 35.7726L109.698 36.0568C107.455 34.778 105.104 33.6767 102.967 32.2202C95.1753 27.6282 89.1075 20.6154 85.693 12.2558C83.6273 6.53641 86.4053 3.37477 92.5313 4.33392C94.9509 4.66323 97.2602 5.5507 99.2757 6.92586C101.291 8.30101 102.958 10.126 104.142 12.2558C108.523 20.071 112.263 28.206 116.287 36.2345L115.539 36.6963C109.378 30.1243 103.181 23.5879 96.9834 17.016L95.6656 18.2948L110.126 35.7726ZM168.359 51.6874L169.961 52.7886C164.939 60.2487 160.274 68.0284 154.682 75.1332C151.789 77.8179 148.297 79.7782 144.496 80.8526C142.252 81.7762 140.507 80.4263 140.008 77.762C139.176 74.7081 139.273 71.4763 140.288 68.4779C141.303 65.4794 143.189 62.8498 145.707 60.9236C152.046 56.1989 159.205 52.5044 166.044 48.3837C166.613 48.0284 167.361 47.9929 167.005 48.0995C162.945 53.6412 158.386 59.5737 154.112 65.8615C153.201 67.8798 152.601 70.0234 152.331 72.2202L168.359 51.6874ZM72.7286 63.8721L73.2985 64.1208C72.7166 66.2488 72.2529 68.4072 71.9095 70.5861C71.3752 75.7371 71.0191 80.8881 70.6985 86.0746C70.6078 88.3364 69.7296 90.4959 68.215 92.1817C66.7004 93.8674 64.6441 94.9739 62.3999 95.3108C61.6591 95.6278 60.8566 95.7758 60.0511 95.744C59.2456 95.7121 58.4574 95.5013 57.7441 95.1268C57.0307 94.7523 56.4102 94.2237 55.9279 93.5795C55.4455 92.9353 55.1135 92.1917 54.9561 91.4032C54.3452 87.8769 54.3452 84.2723 54.9561 80.746C56.5944 71.8295 64.9287 61.6341 72.0163 59.1829C68.1697 64.6536 63.9314 69.8401 62.7204 76.3765L63.6109 76.9449C66.6382 72.5044 69.7013 68.0284 72.7286 63.8721Z" fill="#FCB2A9"/>
<path d="M239.484 41.6341C243.723 39.0053 248.21 36.6252 252.235 33.6412C257.268 30.01 260.881 24.7491 262.457 18.7567C263.214 16.7719 263.38 14.611 262.935 12.5343C262.489 10.4577 261.451 8.55384 259.945 7.05216C258.44 5.55049 256.531 4.51505 254.449 4.07058C252.367 3.62611 250.2 3.79159 248.21 4.54706C245.195 5.43844 242.398 6.94351 239.995 8.96732C237.592 10.9911 235.635 13.4897 234.249 16.3055C230.402 23.1972 226.663 30.1599 222.923 37.1226C221.178 40.3552 219.361 43.0906 214.838 42.6998C213.194 42.9119 211.601 43.4172 210.137 44.1918C210.137 44.6181 210.137 45.0799 210.137 45.5417C211.303 45.8161 212.502 45.9237 213.698 45.8615C214.841 45.5604 216.056 45.6868 217.112 46.2168C218.168 46.7468 218.993 47.6439 219.432 48.7389C223.528 55.8437 227.624 62.9485 231.863 70.0533C234.971 76.0445 239.981 80.841 246.109 83.6945C254.23 87.0693 259.394 83.6945 259.643 75.0622C259.922 72.161 259.502 69.2353 258.418 66.5289C257.334 63.8224 255.617 61.4135 253.41 59.5027C247.641 54.9556 241.158 51.2611 234.926 47.2469C233.818 46.7236 232.826 45.9871 232.005 45.0799C238.915 45.4352 245.824 45.6838 252.734 46.1456C257.578 46.4298 262.386 47.0693 267.23 47.46C268.398 47.3488 269.57 47.6408 270.549 48.2874C271.527 48.9339 272.254 49.8958 272.608 51.0124C274.602 57.5488 276.525 64.0853 278.698 70.5151C280.449 76.1019 282.554 81.5718 285.002 86.8917C286.179 88.8963 287.823 90.5886 289.794 91.8254C291.766 93.0621 294.007 93.8068 296.328 93.9964C298.097 94.2719 299.906 94.1144 301.6 93.5373C303.294 92.9603 304.822 91.9812 306.052 90.6842C307.282 89.3873 308.178 87.8115 308.662 86.0925C309.146 84.3736 309.203 82.5631 308.83 80.817C306.827 70.4229 300.8 61.2339 292.054 55.2398C290.024 53.6767 287.851 52.2913 284.931 50.3019C294.049 51.794 302.312 53.0728 310.539 54.5293C311.696 54.8974 312.674 55.6828 313.282 56.7318C317.136 62.9923 319.239 70.168 319.372 77.5133C319.388 81.4141 319.782 85.3043 320.547 89.1297C321.315 92.103 323.028 94.7483 325.429 96.6694C327.831 98.5906 330.791 99.6843 333.868 99.7869C340.742 100.249 345.479 95.6306 345.479 88.0284C345.662 83.0544 344.694 78.1052 342.649 73.5647C340.605 69.0243 337.539 65.0148 333.69 61.8472C331.802 60.2131 329.808 58.7567 327.172 56.6607C333.644 57.9828 339.652 60.985 344.588 65.3641C350.18 70.4796 355.523 75.8082 361.043 80.9947C365.774 86.0198 371.761 89.6981 378.388 91.6519C381.184 92.5074 384.185 92.4213 386.927 91.4069C389.669 90.3925 392 88.5062 393.561 86.0391C395.015 83.7101 395.631 80.9566 395.308 78.2318C394.984 75.507 393.74 72.9734 391.78 71.048C384.122 62.0249 373.687 58.0817 362.681 55.2753C351.096 52.8685 339.291 51.6779 327.457 51.7229C324.857 51.7229 322.292 51.3677 318.766 51.119C325.89 48.4192 331.802 46.2167 337.75 43.6945C346.052 40.5016 353.405 35.2577 359.12 28.4547C361.255 25.568 362.683 22.2221 363.287 18.6856C363.504 16.9437 363.277 15.1754 362.627 13.5442C361.977 11.9129 360.926 10.4713 359.57 9.35252C358.214 8.23372 356.597 7.47383 354.869 7.14306C353.14 6.81229 351.356 6.9213 349.681 7.46003C345.375 8.67229 341.322 10.6455 337.714 13.286C329.414 19.365 322.496 27.1248 317.413 36.0568C315.226 39.3994 312.847 42.6137 310.29 45.6838C309.415 47.0676 308.106 48.1242 306.566 48.6895C305.027 49.2548 303.343 49.2972 301.777 48.8099C294.654 47.2469 287.139 46.3233 279.232 45.0089L290.843 38.8632C298.254 35.1126 304.654 29.6426 309.506 22.913C311.822 19.6587 313.613 16.0627 314.813 12.2558C316.914 5.32858 313.068 0.426285 305.766 -7.62939e-06C303.153 -0.0810471 300.552 0.389748 298.133 1.38152C295.715 2.37329 293.534 3.86363 291.734 5.75488C287.09 10.5105 283.637 16.2917 281.654 22.6288C279.497 30.0321 275.345 36.7038 269.652 41.9183C268.639 42.7305 267.389 43.1919 266.09 43.2327C257.115 42.8419 248.246 42.2025 239.484 41.6341ZM351.355 57.3712C354.24 57.8686 357.731 58.1883 361.15 59.0408C371.372 61.5275 381.095 65.151 388.112 73.5346C389.514 74.7565 390.429 76.4405 390.691 78.2794C390.952 80.1183 390.543 81.9897 389.536 83.5524C388.434 85.2727 386.747 86.5392 384.785 87.1198C382.822 87.7005 380.716 87.5564 378.851 86.714C375.111 85.3033 371.623 83.3001 368.523 80.7815C361.72 74.9201 355.344 68.5968 348.791 62.4511L347.117 60.7105L347.723 59.8224L372.191 73.3925C372.191 73.0728 372.191 72.6821 372.191 72.4689C371.787 71.6198 371.218 70.8591 370.517 70.2309C364.07 65.7549 357.517 61.421 351.355 57.3712ZM321.295 38.5435C325.355 29.2362 337.073 16.6963 345.301 13.0018C347.588 11.9162 350.071 11.3001 352.602 11.19C353.672 11.1222 354.743 11.3247 355.714 11.7789C356.685 12.2331 357.525 12.9243 358.157 13.7885C358.789 14.6526 359.192 15.6619 359.33 16.7228C359.467 17.7838 359.333 18.8621 358.942 19.8579C358.094 22.1811 356.799 24.3169 355.131 26.1456C345.514 36.5897 332.657 41.1012 319.764 45.5773L318.517 44.1918L338.854 25.897L337.928 24.9023C331.232 27.9574 327.386 34.1385 321.295 38.4725V38.5435ZM278.164 50.2664C286.534 54.6714 294.619 59.7158 299.534 68.0284C302.223 72.257 303.995 77.0007 304.734 81.9538C305.588 88.7744 300.46 91.7584 294.049 89.0586C291.7 87.9264 289.659 86.2479 288.097 84.1645C286.535 82.0811 285.498 79.6538 285.073 77.087C282.865 68.0284 280.55 59.325 278.164 50.2664ZM226.021 41.0302C244.756 24.405 247.391 21.421 245.895 17.4067L230.616 33.5346L229.654 32.7531C232.753 27.1048 235.602 21.3144 239.021 15.8792C240.31 13.5201 242.233 11.5657 244.573 10.2355C246.913 8.90523 249.579 8.25168 252.271 8.34813C253.287 8.29292 254.301 8.4853 255.226 8.90865C256.151 9.33201 256.959 9.9736 257.579 10.778C258.2 11.5824 258.615 12.5254 258.788 13.5256C258.962 14.5258 258.889 15.5531 258.575 16.5186C257.36 21.4976 254.591 25.9632 250.668 29.2718C243.652 35.6305 234.569 37.7975 226.021 41.0302ZM279.909 36.7673L279.553 36.341C282.153 30.444 284.361 24.3339 287.46 18.579C289.829 14.4174 292.766 10.6037 296.186 7.24688C297.553 5.87083 299.27 4.89238 301.152 4.41669C303.035 3.941 305.012 3.98607 306.871 4.54706C310.432 5.47068 311.394 6.85612 310.432 10.444C306.301 23.3392 296.613 30.3019 285.465 36.0568C289.846 29.8401 295.83 24.8313 299.356 18.0462L298.394 17.2291L279.909 36.7673ZM226.093 52.3623L227.09 51.7229L242.405 71.119C241.052 60.9947 233.643 54.7424 226.805 47.1758C235.478 50.3122 243.469 55.0752 250.347 61.2078C252.474 63.182 254.068 65.6582 254.983 68.4084C255.898 71.1587 256.105 74.0943 255.583 76.9449C255.084 80.4973 253.054 81.7407 250.205 80.4973C246.877 79.4561 243.79 77.7656 241.123 75.524C234.356 68.9876 230.509 60.4618 226.093 52.3623ZM331.838 76.8384L333.155 76.1279C331.766 73.1439 330.555 70.0888 328.988 67.2469C327.421 64.405 325.427 61.8117 323.61 59.1119L324.465 58.3659C328.451 61.8319 332.166 65.5966 335.577 69.627C337.99 72.5634 339.704 76.0063 340.592 79.6976C341.48 83.3889 341.519 87.2329 340.706 90.9414C340.472 92.3117 339.739 93.5476 338.648 94.4128C337.558 95.278 336.185 95.7115 334.794 95.6305C332.529 95.5981 330.339 94.8217 328.562 93.4216C326.784 92.0216 325.52 90.076 324.964 87.8863C323.966 79.9645 323.397 71.9716 322.649 63.9432C325.747 68.0284 328.81 72.5044 331.838 76.8384Z" fill="#FCB2A9"/>
</g>
<defs>
<clipPath id="clip0">
<rect width="395.413" height="100" fill="white" transform="matrix(1 0 0 -1 0 100)"/>
</clipPath>
</defs>
</svg>
