<svg width="396" height="100" viewBox="0 0 396 100" fill="none" xmlns="http://www.w3.org/2000/svg">
<g clip-path="url(#clip0)">
<path d="M116.466 54.9201C107.241 53.3925 98.6574 51.9361 90.3587 50.6927C89.7879 50.7064 89.2264 50.8401 88.7109 51.0849C88.1954 51.3298 87.7374 51.6803 87.367 52.1137C84.0686 55.6357 81.0555 59.4131 78.356 63.4103C73.0986 72.5588 66.0201 80.5377 57.5561 86.8561C54.09 89.2228 50.2993 91.0773 46.3013 92.3624C44.2667 93.0676 42.0659 93.1431 39.9876 92.5789C37.9092 92.0147 36.0503 90.8372 34.6547 89.2007C33.2375 87.5942 32.3102 85.617 31.9821 83.5023C31.6539 81.3876 31.9387 79.2234 32.8027 77.2647C34.9134 71.9236 38.7482 67.4362 43.7013 64.5115C48.6928 61.1609 53.9315 58.1921 59.3725 55.6306C64.6793 53.1084 70.3423 51.3322 76.6821 48.881C73.5478 48.5968 71.1259 48.2771 68.6684 48.206C56.5975 48.2859 44.5518 47.0952 32.7315 44.6536C22.0466 41.8828 11.7178 38.0107 4.23838 29.3073C-0.391751 23.9787 -1.03285 18.6501 2.13701 13.7833C3.75956 11.3242 6.15116 9.46862 8.94005 8.505C11.7289 7.54138 14.7589 7.5237 17.5589 8.45471C24.011 10.5229 29.8318 14.1897 34.4767 19.1119C39.8904 24.2274 45.1616 29.4494 50.6821 34.4938C55.2758 38.6031 60.7997 41.5408 66.7807 43.0551C62.5366 39.0661 58.5961 34.7677 54.9917 30.1954C52.6849 27.029 51.098 23.3991 50.3414 19.5585C49.5848 15.7179 49.6768 11.7589 50.6109 7.95737C50.9194 6.56838 51.5149 5.25882 52.3594 4.11234C53.204 2.96586 54.279 2.00766 55.5157 1.29894C56.7525 0.590222 58.1239 0.146567 59.5423 -0.00369015C60.9607 -0.153947 62.3949 -0.00750192 63.7533 0.426291C67.122 1.03036 70.1601 2.8239 72.3118 5.47883C74.4635 8.13375 75.585 11.4726 75.4711 14.8846C75.8273 24.7247 76.0766 34.5648 81.8464 43.3037C82.6289 44.4822 83.8011 45.3497 85.1588 45.7549C93.1724 47.2114 101.222 48.4192 110.09 49.8757C107.348 47.9219 105.246 46.5364 103.252 45.0089C94.567 39.0159 88.573 29.8761 86.5478 19.5382C86.0272 17.5438 86.0744 15.444 86.6841 13.4749C87.2939 11.5057 88.442 9.74514 89.9996 8.39088C91.5571 7.03662 93.4624 6.14234 95.5014 5.80847C97.5404 5.47461 99.6324 5.71439 101.542 6.50089C104.563 7.45878 107.289 9.1681 109.463 11.4677C111.638 13.7673 113.19 16.5814 113.972 19.6448C115.824 25.7194 117.107 32.0071 118.923 38.0817C120.072 42.0609 121.5 45.9545 123.197 49.7336C123.53 50.3703 124 50.9263 124.572 51.3621C125.144 51.798 125.806 52.1031 126.509 52.2558C138.761 53.3925 151.013 54.2806 163.372 54.4938C159.276 52.2913 155.145 50.1954 151.156 47.8508C144.959 44.2984 139.082 39.9645 136.909 32.7531C135.893 29.0299 135.603 25.1467 136.055 21.3144C136.518 16.1634 141.255 13.6767 146.739 15.1687C154.018 17.58 160.055 22.7469 163.55 29.556C167.397 36.0568 170.959 42.6288 174.52 49.0231C176.479 52.5755 178.616 55.3464 183.282 54.032C183.745 54.032 184.35 54.2451 185.098 54.4227C184.35 57.7265 181.537 57.2647 179.756 57.2647C178.455 57.2053 177.168 57.5446 176.066 58.2368C174.965 58.9291 174.102 59.941 173.594 61.1368C170.033 67.7442 166.471 74.4583 162.66 80.9236C160.553 84.5918 157.992 87.9813 155.038 91.0124C152.673 93.1332 149.824 94.6454 146.739 95.4174C144.787 96.1124 142.677 96.2378 140.656 95.779C138.636 95.3202 136.788 94.2962 135.33 92.827C133.872 91.3578 132.864 89.5044 132.424 87.4842C131.985 85.464 132.132 83.3607 132.849 81.421C134.072 77.3325 136.118 73.5355 138.861 70.2618C141.605 66.9881 144.988 64.3063 148.805 62.3801C151.12 61.0302 153.649 59.9645 156.712 58.437L145.137 57.6199C139.83 57.2647 134.452 56.8739 129.216 56.6963C128.004 56.7316 126.839 57.1691 125.904 57.9396C120.966 62.3773 117.209 67.9676 114.97 74.2096C112.781 79.9091 110.062 85.3919 106.849 90.5862C104.894 94.0151 101.888 96.7281 98.2719 98.3267C94.6562 99.9252 90.6218 100.325 86.7615 99.4671C85.7015 99.2891 84.6886 98.8992 83.7835 98.321C82.8783 97.7428 82.0997 96.9881 81.4943 96.1022C80.8889 95.2163 80.4692 94.2176 80.2604 93.1659C80.0516 92.1143 80.0581 91.0314 80.2793 89.9822C81.3501 83.538 84.4134 77.5886 89.0409 72.9663C95.7927 66.1018 103.827 60.6227 112.69 56.8384L116.466 54.9201ZM47.7616 40.2487L48.189 39.325C41.8136 33.2149 35.6164 26.8561 28.9561 21.0302C25.4575 18.0645 21.5764 15.5794 17.4164 13.6412C15.5194 12.6009 13.3024 12.3011 11.1961 12.8001C9.08982 13.299 7.2447 14.5611 6.01919 16.341C3.73975 19.5027 4.16714 23.2327 7.87124 27.1758C17.7726 37.833 30.8794 40.9592 45.6246 42.8419C40.7095 40.1421 36.6136 38.1172 32.7315 35.7371C25.6082 31.2611 24.1123 29.7691 23.4356 26.8206L47.7616 40.2487ZM77.1095 55.7727L75.756 54.2806C72.1944 55.5595 68.6328 56.8028 65.0711 58.1883C56.0815 61.2587 47.9009 66.3098 41.1369 72.9663C39.186 75.0231 37.6503 77.4352 36.6136 80.0711C36.1796 81.0526 36.0108 82.1304 36.1239 83.1973C36.237 84.2641 36.6282 85.2828 37.2584 86.1522C37.8887 87.0215 38.7361 87.7111 39.7165 88.1524C40.6968 88.5938 41.776 88.7715 42.8465 88.6678C46.769 88.186 50.5379 86.8521 53.8876 84.7602C61.6515 79.497 68.1078 72.535 72.7643 64.405C73.2273 63.659 73.5122 62.8419 74.1889 61.4565C67.956 65.9325 64.0026 72.1137 57.5917 75.0622L56.9862 74.0675L77.1095 55.7727ZM117.534 49.9112C115.896 44.1208 114.364 38.8277 112.904 33.5346C111.729 29.3428 110.767 25.0799 109.342 20.9236C108.861 18.9715 107.979 17.14 106.753 15.5443C105.527 13.9486 103.984 12.6233 102.219 11.6519C100.944 10.6739 99.4056 10.0974 97.8005 9.99619C96.1953 9.89494 94.5964 10.2735 93.2081 11.0835C91.9934 12.1258 91.0768 13.4701 90.5513 14.98C90.0259 16.4898 89.9103 18.1115 90.2163 19.6803C90.3277 20.3791 90.4944 21.0681 90.7149 21.7407C94.8108 35.7371 105.353 43.3748 117.534 49.9112ZM169.605 59.1474L169.071 58.2948C161.948 61.5631 154.824 64.405 148.128 68.2416C145.333 69.8285 142.899 71.9773 140.98 74.5517C139.061 77.1262 137.699 80.0702 136.981 83.1972C136.599 84.2087 136.486 85.3012 136.651 86.3693C136.816 87.4373 137.255 88.4448 137.924 89.2946C138.594 90.1444 139.471 90.8077 140.473 91.2206C141.474 91.6335 142.565 91.7821 143.641 91.6519C146.084 91.7039 148.498 91.1102 150.638 89.931C152.777 88.7518 154.565 87.0292 155.822 84.9378C159.383 79.2185 162.553 73.1439 165.865 67.1758L164.868 66.3943C159.704 71.794 154.575 77.2291 149.446 82.6288L148.698 81.9893C152.046 71.4032 162.161 66.4298 169.57 59.1474H169.605ZM110.126 64.2274L109.698 63.9432C107.455 65.222 105.104 66.3233 102.967 67.7798C95.1753 72.3718 89.1075 79.3846 85.693 87.7442C83.6273 93.4636 86.4053 96.6252 92.5313 95.6661C94.9509 95.3368 97.2602 94.4493 99.2757 93.0741C101.291 91.699 102.958 89.874 104.142 87.7442C108.523 79.929 112.263 71.794 116.287 63.7655L115.539 63.3037C109.378 69.8757 103.181 76.4121 96.9834 82.984L95.6656 81.7052L110.126 64.2274ZM168.359 48.3126L169.961 47.2114C164.939 39.7513 160.274 31.9716 154.682 24.8668C151.789 22.1821 148.297 20.2218 144.496 19.1474C142.252 18.2238 140.507 19.5737 140.008 22.238C139.176 25.2919 139.273 28.5237 140.288 31.5221C141.303 34.5206 143.189 37.1502 145.707 39.0764C152.046 43.8011 159.205 47.4956 166.044 51.6163C166.613 51.9716 167.361 52.0071 167.005 51.9005C162.945 46.3588 158.386 40.4263 154.112 34.1385C153.201 32.1202 152.601 29.9766 152.331 27.7798L168.359 48.3126ZM72.7286 36.1279L73.2985 35.8792C72.7166 33.7512 72.2529 31.5928 71.9095 29.4139C71.3752 24.2629 71.0191 19.1119 70.6985 13.9254C70.6078 11.6636 69.7296 9.50407 68.215 7.81833C66.7004 6.13259 64.6441 5.02607 62.3999 4.68917C61.6591 4.37217 60.8566 4.22419 60.0511 4.25603C59.2456 4.28787 58.4574 4.49872 57.7441 4.87319C57.0307 5.24767 56.4102 5.77631 55.9279 6.42052C55.4455 7.06474 55.1135 7.80826 54.9561 8.59681C54.3452 12.1231 54.3452 15.7277 54.9561 19.254C56.5944 28.1705 64.9287 38.3659 72.0163 40.8171C68.1697 35.3464 63.9314 30.1599 62.7204 23.6235L63.6109 23.0551C66.6382 27.4956 69.7013 31.9716 72.7286 36.1279Z" fill="#FCB2A9"/>
<path d="M239.484 58.3659C243.723 60.9947 248.21 63.3748 252.235 66.3588C257.268 69.99 260.881 75.2509 262.457 81.2433C263.214 83.2281 263.38 85.389 262.935 87.4657C262.489 89.5423 261.451 91.4462 259.945 92.9478C258.44 94.4495 256.531 95.485 254.449 95.9294C252.367 96.3739 250.2 96.2084 248.21 95.4529C245.195 94.5616 242.398 93.0565 239.995 91.0327C237.592 89.0089 235.635 86.5103 234.249 83.6945C230.402 76.8028 226.663 69.8401 222.923 62.8774C221.178 59.6448 219.361 56.9094 214.838 57.3002C213.194 57.0881 211.601 56.5828 210.137 55.8082C210.137 55.3819 210.137 54.9201 210.137 54.4583C211.303 54.1839 212.502 54.0763 213.698 54.1385C214.841 54.4396 216.056 54.3132 217.112 53.7832C218.168 53.2532 218.993 52.3561 219.432 51.2611C223.528 44.1563 227.624 37.0515 231.863 29.9467C234.971 23.9555 239.981 19.159 246.109 16.3055C254.23 12.9307 259.394 16.3055 259.643 24.9378C259.922 27.839 259.502 30.7647 258.418 33.4711C257.334 36.1776 255.617 38.5865 253.41 40.4973C247.641 45.0444 241.158 48.7389 234.926 52.7531C233.818 53.2764 232.826 54.0129 232.005 54.9201C238.915 54.5648 245.824 54.3162 252.734 53.8544C257.578 53.5702 262.386 52.9307 267.23 52.54C268.398 52.6512 269.57 52.3592 270.549 51.7126C271.527 51.0661 272.254 50.1042 272.608 48.9876C274.602 42.4512 276.525 35.9147 278.698 29.4849C280.449 23.8981 282.554 18.4282 285.002 13.1083C286.179 11.1037 287.823 9.41137 289.794 8.17464C291.766 6.93791 294.007 6.1932 296.328 6.00355C298.097 5.72809 299.906 5.88565 301.6 6.46266C303.294 7.03967 304.822 8.01883 306.052 9.31576C307.282 10.6127 308.178 12.1885 308.662 13.9075C309.146 15.6264 309.203 17.4369 308.83 19.183C306.827 29.5771 300.8 38.7661 292.054 44.7602C290.024 46.3233 287.851 47.7087 284.931 49.6981C294.049 48.206 302.312 46.9272 310.539 45.4707C311.696 45.1026 312.674 44.3172 313.282 43.2682C317.136 37.0077 319.239 29.832 319.372 22.4867C319.388 18.5859 319.782 14.6957 320.547 10.8703C321.315 7.89701 323.028 5.25174 325.429 3.33056C327.831 1.40938 330.791 0.315663 333.868 0.213144C340.742 -0.248667 345.479 4.36945 345.479 11.9716C345.662 16.9456 344.694 21.8948 342.649 26.4353C340.605 30.9757 337.539 34.9852 333.69 38.1528C331.802 39.7869 329.808 41.2433 327.172 43.3393C333.644 42.0172 339.652 39.015 344.588 34.6359C350.18 29.5204 355.523 24.1918 361.043 19.0053C365.774 13.9802 371.761 10.3019 378.388 8.34814C381.184 7.49262 384.185 7.5787 386.927 8.59309C389.669 9.60749 392 11.4938 393.561 13.9609C395.015 16.2899 395.631 19.0434 395.308 21.7682C394.984 24.493 393.74 27.0266 391.78 28.952C384.122 37.9751 373.687 41.9183 362.681 44.7247C351.096 47.1315 339.291 48.3221 327.457 48.2771C324.857 48.2771 322.292 48.6323 318.766 48.881C325.89 51.5808 331.802 53.7833 337.75 56.3055C346.052 59.4984 353.405 64.7423 359.12 71.5453C361.255 74.432 362.683 77.7779 363.287 81.3144C363.504 83.0563 363.277 84.8246 362.627 86.4558C361.977 88.0871 360.926 89.5287 359.57 90.6475C358.214 91.7663 356.597 92.5262 354.869 92.8569C353.14 93.1877 351.356 93.0787 349.681 92.54C345.375 91.3277 341.322 89.3545 337.714 86.714C329.414 80.635 322.496 72.8752 317.413 63.9432C315.226 60.6006 312.847 57.3863 310.29 54.3162C309.415 52.9324 308.106 51.8758 306.566 51.3105C305.027 50.7452 303.343 50.7028 301.777 51.1901C294.654 52.7531 287.139 53.6767 279.232 54.9911L290.843 61.1368C298.254 64.8874 304.654 70.3574 309.506 77.087C311.822 80.3413 313.613 83.9373 314.813 87.7442C316.914 94.6714 313.068 99.5737 305.766 100C303.153 100.081 300.552 99.6103 298.133 98.6185C295.715 97.6267 293.534 96.1364 291.734 94.2451C287.09 89.4895 283.637 83.7083 281.654 77.3712C279.497 69.9679 275.345 63.2962 269.652 58.0817C268.639 57.2695 267.389 56.8081 266.09 56.7673C257.115 57.1581 248.246 57.7975 239.484 58.3659ZM351.355 42.6288C354.24 42.1314 357.731 41.8117 361.15 40.9592C371.372 38.4725 381.095 34.849 388.112 26.4654C389.514 25.2435 390.429 23.5595 390.691 21.7206C390.952 19.8817 390.543 18.0103 389.536 16.4476C388.434 14.7273 386.747 13.4608 384.785 12.8802C382.822 12.2995 380.716 12.4436 378.851 13.286C375.111 14.6967 371.623 16.6999 368.523 19.2185C361.72 25.0799 355.344 31.4032 348.791 37.5489L347.117 39.2895L347.723 40.1776L372.191 26.6075C372.191 26.9272 372.191 27.3179 372.191 27.5311C371.787 28.3802 371.218 29.1409 370.517 29.7691C364.07 34.2451 357.517 38.579 351.355 42.6288ZM321.295 61.4565C325.355 70.7638 337.073 83.3037 345.301 86.9982C347.588 88.0838 350.071 88.6999 352.602 88.81C353.672 88.8778 354.743 88.6753 355.714 88.2211C356.685 87.7669 357.525 87.0757 358.157 86.2115C358.789 85.3474 359.192 84.3381 359.33 83.2772C359.467 82.2162 359.333 81.1379 358.942 80.1421C358.094 77.8189 356.799 75.6831 355.131 73.8544C345.514 63.4103 332.657 58.8988 319.764 54.4227L318.517 55.8082L338.854 74.103L337.928 75.0977C331.232 72.0426 327.386 65.8615 321.295 61.5275V61.4565ZM278.164 49.7336C286.534 45.3286 294.619 40.2842 299.534 31.9716C302.223 27.743 303.995 22.9993 304.734 18.0462C305.588 11.2256 300.46 8.24156 294.049 10.9414C291.7 12.0736 289.659 13.7521 288.097 15.8355C286.535 17.9189 285.498 20.3462 285.073 22.913C282.865 31.9716 280.55 40.675 278.164 49.7336ZM226.021 58.9698C244.756 75.595 247.391 78.579 245.895 82.5933L230.616 66.4654L229.654 67.2469C232.753 72.8952 235.602 78.6856 239.021 84.1208C240.31 86.4799 242.233 88.4343 244.573 89.7645C246.913 91.0948 249.579 91.7483 252.271 91.6519C253.287 91.7071 254.301 91.5147 255.226 91.0913C256.151 90.668 256.959 90.0264 257.579 89.222C258.2 88.4176 258.615 87.4746 258.788 86.4744C258.962 85.4742 258.889 84.4469 258.575 83.4814C257.36 78.5024 254.591 74.0368 250.668 70.7282C243.652 64.3695 234.569 62.2025 226.021 58.9698ZM279.909 63.2327L279.553 63.659C282.153 69.556 284.361 75.6661 287.46 81.421C289.829 85.5826 292.766 89.3963 296.186 92.7531C297.553 94.1292 299.27 95.1076 301.152 95.5833C303.035 96.059 305.012 96.0139 306.871 95.4529C310.432 94.5293 311.394 93.1439 310.432 89.556C306.301 76.6608 296.613 69.6981 285.465 63.9432C289.846 70.1599 295.83 75.1687 299.356 81.9538L298.394 82.7709L279.909 63.2327ZM226.093 47.6377L227.09 48.2771L242.405 28.881C241.052 39.0053 233.643 45.2576 226.805 52.8242C235.478 49.6878 243.469 44.9248 250.347 38.7922C252.474 36.818 254.068 34.3418 254.983 31.5916C255.898 28.8413 256.105 25.9057 255.583 23.0551C255.084 19.5027 253.054 18.2593 250.205 19.5027C246.877 20.5439 243.79 22.2344 241.123 24.476C234.356 31.0124 230.509 39.5382 226.093 47.6377ZM331.838 23.1616L333.155 23.8721C331.766 26.8561 330.555 29.9112 328.988 32.7531C327.421 35.595 325.427 38.1883 323.61 40.8881L324.465 41.6341C328.451 38.1681 332.166 34.4034 335.577 30.373C337.99 27.4366 339.704 23.9937 340.592 20.3024C341.48 16.6111 341.519 12.7671 340.706 9.05862C340.472 7.68834 339.739 6.45236 338.648 5.5872C337.558 4.72205 336.185 4.28847 334.794 4.36945C332.529 4.40189 330.339 5.1783 328.562 6.57837C326.784 7.97845 325.52 9.92403 324.964 12.1137C323.966 20.0355 323.397 28.0284 322.649 36.0568C325.747 31.9716 328.81 27.4956 331.838 23.1616Z" fill="#FCB2A9"/>
</g>
<defs>
<clipPath id="clip0">
<rect width="395.413" height="100" fill="white"/>
</clipPath>
</defs>
</svg>
